<?xml version="1.0" encoding="UTF-8" standalone="no"?>
<!-- Created with Inkscape (http://www.inkscape.org/) -->

<svg
   xmlns:dc="http://purl.org/dc/elements/1.1/"
   xmlns:cc="http://creativecommons.org/ns#"
   xmlns:rdf="http://www.w3.org/1999/02/22-rdf-syntax-ns#"
   xmlns:svg="http://www.w3.org/2000/svg"
   xmlns="http://www.w3.org/2000/svg"
   xmlns:sodipodi="http://sodipodi.sourceforge.net/DTD/sodipodi-0.dtd"
   xmlns:inkscape="http://www.inkscape.org/namespaces/inkscape"
   id="svg3352"
   version="1.1"
   inkscape:version="0.91 r13725"
   width="255.14856"
   height="175.45508"
   viewBox="0 0 255.14856 175.45508"
   sodipodi:docname="adidas.svg">
  <metadata
     id="metadata3358">
    <rdf:RDF>
      <cc:Work
         rdf:about="">
        <dc:format>image/svg+xml</dc:format>
        <dc:type
           rdf:resource="http://purl.org/dc/dcmitype/StillImage" />
        <dc:title></dc:title>
      </cc:Work>
    </rdf:RDF>
  </metadata>
  <defs
     id="defs3356" />
  <sodipodi:namedview
     pagecolor="#ffffff"
     bordercolor="#666666"
     borderopacity="1"
     objecttolerance="10"
     gridtolerance="10"
     guidetolerance="10"
     inkscape:pageopacity="0"
     inkscape:pageshadow="2"
     inkscape:window-width="1680"
     inkscape:window-height="987"
     id="namedview3354"
     showgrid="false"
     inkscape:zoom="1.5519578"
     inkscape:cx="67.10313"
     inkscape:cy="38.630033"
     inkscape:window-x="-8"
     inkscape:window-y="-8"
     inkscape:window-maximized="1"
     inkscape:current-layer="layer1"
     showguides="true"
     fit-margin-top="0"
     fit-margin-left="0"
     fit-margin-right="0"
     fit-margin-bottom="0" />
  <g
     inkscape:groupmode="layer"
     id="layer1"
     inkscape:label="Layer"
     style="display:inline"
     transform="translate(-0.37166212,0.30143715)">
    <path
       style="fill:none;fill-rule:evenodd;stroke:#000000;stroke-width:1px;stroke-linecap:butt;stroke-linejoin:miter;stroke-opacity:1"
       d="m 89.947482,105.36077 -76.844022,0 C 4.6639431,87.593366 1.7767404,80.26431 0.88837019,48.505076 41.975492,55.167852 62.852191,68.715499 89.947482,105.36077 Z"
       id="path3397"
       inkscape:connector-curvature="0"
       sodipodi:nodetypes="cccc" />
    <path
       sodipodi:nodetypes="cccc"
       inkscape:connector-curvature="0"
       id="path3399"
       d="m 89.947482,105.36077 -76.844022,0 C 4.6639431,87.593366 1.7767404,80.26431 0.88837019,48.505076 41.975492,55.167852 62.852191,68.715499 89.947482,105.36077 Z"
       style="fill:#000000;fill-opacity:1;fill-rule:evenodd;stroke:#000000;stroke-width:1px;stroke-linecap:butt;stroke-linejoin:miter;stroke-opacity:1" />
    <path
       style="fill:#000000;fill-opacity:1;fill-rule:evenodd;stroke:#000000;stroke-width:1px;stroke-linecap:butt;stroke-linejoin:miter;stroke-opacity:1"
       d="m 165.94441,105.04669 76.84402,0 c 8.43952,-17.767411 11.32672,-25.096467 12.21509,-56.855701 -41.08712,6.662776 -61.96382,20.210423 -89.05911,56.855701 z"
       id="path3403"
       inkscape:connector-curvature="0"
       sodipodi:nodetypes="cccc" />
    <path
       style="fill:#000000;fill-opacity:1;fill-rule:evenodd;stroke:#000000;stroke-width:1px;stroke-linecap:butt;stroke-linejoin:miter;stroke-opacity:1"
       d="m 18.655774,114.46656 218.983256,0 -7.32906,10.43835 -204.769327,0 z"
       id="path3441"
       inkscape:connector-curvature="0" />
    <path
       inkscape:connector-curvature="0"
       id="path3443"
       d="m 33.236795,133.51973 189.159345,0 -9.4402,10.53193 -169.552187,0 z"
       style="fill:#000000;fill-opacity:1;fill-rule:evenodd;stroke:#000000;stroke-width:0.93356919px;stroke-linecap:butt;stroke-linejoin:miter;stroke-opacity:1"
       sodipodi:nodetypes="ccccc" />
    <path
       style="fill:#000000;fill-opacity:1;fill-rule:evenodd;stroke:#000000;stroke-width:1px;stroke-linecap:butt;stroke-linejoin:miter;stroke-opacity:1"
       d="m 55.078952,153.55485 54.634768,0 0,21.09879 c -29.538309,0 -54.634768,-21.09879 -54.634768,-21.09879 z"
       id="path3445"
       inkscape:connector-curvature="0"
       sodipodi:nodetypes="cccc" />
    <path
       sodipodi:nodetypes="cccc"
       inkscape:connector-curvature="0"
       id="path3447"
       d="m 200.78831,153.55485 -54.63477,0 0,21.09879 c 29.53831,0 54.63477,-21.09879 54.63477,-21.09879 z"
       style="fill:#000000;fill-opacity:1;fill-rule:evenodd;stroke:#000000;stroke-width:1px;stroke-linecap:butt;stroke-linejoin:miter;stroke-opacity:1" />
    <path
       style="fill:#000000;fill-opacity:1;fill-rule:evenodd;stroke:#000000;stroke-width:1px;stroke-linecap:butt;stroke-linejoin:miter;stroke-opacity:1"
       d="m 112.15674,153.33276 32.42551,0 c 0,0 -7.55114,13.76974 -15.99066,20.8767 -9.54998,-7.32905 -16.43485,-20.8767 -16.43485,-20.8767 z"
       id="path3449"
       inkscape:connector-curvature="0"
       sodipodi:nodetypes="cccc" />
    <path
       style="fill:#000000;fill-opacity:1;fill-rule:evenodd;stroke:#000000;stroke-width:1px;stroke-linecap:butt;stroke-linejoin:miter;stroke-opacity:1"
       d="m 96.610259,105.36077 63.296381,0 C 165.68105,46.506245 145.47062,12.970269 128.59159,0.31099328 111.33957,11.831817 91.946315,44.285319 96.610259,105.36077 Z"
       id="path3451"
       inkscape:connector-curvature="0"
       sodipodi:nodetypes="cccc" />
    <path
       style="opacity:0;fill:#000000;fill-opacity:1;stroke:#636347;stroke-width:0.24938452;stroke-miterlimit:4;stroke-dasharray:none;stroke-opacity:1"
       d="M 97.128534,103.19545 C 96.684073,99.808195 96.53624,81.787079 96.905019,75.948466 98.580993,49.413941 105.18366,28.255514 116.52528,13.07484 119.1362,9.5801426 123.7189,4.8128962 126.55536,2.6408573 c 1.68708,-1.2918919 1.85639,-1.3541098 2.60071,-0.9557595 0.43788,0.2343483 2.17397,1.7748819 3.85796,3.423408 14.06515,13.7688872 23.24302,35.4278172 26.25525,61.9599332 1.09424,9.638228 1.20423,23.112125 0.28466,34.870671 l -0.21492,2.74825 -31.00736,0 -31.007364,0 -0.195762,-1.49191 z"
       id="path3465"
       inkscape:connector-curvature="0" />
  </g>
</svg>
